{
  "accessors": [
    {
      "bufferView": 0,
      "componentType": 5125,
      "count": 3684,
      "type": "SCALAR"
    },
    {
      "bufferView": 1,
      "componentType": 5126,
      "count": 1999,
      "max": [
        1,
        0.293629139661789,
        0.4894198179245
      ],
      "min": [
        -1,
        -0.293629139661789,
        -0.4894198179245
      ],
      "type": "VEC3"
    },
    {
      "bufferView": 2,
      "componentType": 5126,
      "count": 1999,
      "type": "VEC3"
    },
    {
      "bufferView": 3,
      "componentType": 5126,
      "count": 1999,
      "type": "VEC2"
    }
  ],
  "asset": {
    "generator": "Substance Painter 2019.3.3",
    "version": "2.0"
  },
  "bufferViews": [
    {
      "buffer": 0,
      "byteLength": 14736,
      "target": 34963,
      "byteOffset": 0
    },
    {
      "buffer": 0,
      "byteLength": 23988,
      "byteOffset": 14736,
      "target": 34962
    },
    {
      "buffer": 0,
      "byteLength": 23988,
      "byteOffset": 38724,
      "target": 34962
    },
    {
      "buffer": 0,
      "byteLength": 15992,
      "byteOffset": 62712,
      "target": 34962
    }
  ],
  "buffers": [
    {
      "uri": "Hercules_data.bin",
      "byteLength": 78704
    }
  ],
  "images": [
    {
      "uri": "Hercules_img0.png"
    },
    {
      "uri": "Hercules_img1.png"
    },
    {
      "uri": "Hercules_img2.png"
    }
  ],
  "materials": [
    {
      "alphaMode": "OPAQUE",
      "name": "DefaultMaterial",
      "normalTexture": {
        "index": 2
      },
      "occlusionTexture": {
        "index": 1
      },
      "pbrMetallicRoughness": {
        "baseColorTexture": {
          "index": 0
        },
        "metallicRoughnessTexture": {
          "index": 1
        }
      }
    }
  ],
  "meshes": [
    {
      "name": "Box005 Mesh",
      "primitives": [
        {
          "attributes": {
            "NORMAL": 2,
            "POSITION": 1,
            "TEXCOORD_0": 3
          },
          "indices": 0,
          "material": 0,
          "mode": 4
        }
      ]
    }
  ],
  "nodes": [
    {
      "children": [
        1
      ],
      "name": "default.obj",
      "scale": [
        0.879000008106232,
        0.879000008106232,
        0.879000008106232
      ]
    },
    {
      "children": [
        2
      ],
      "name": "g Box005 Mesh"
    },
    {
      "mesh": 0,
      "name": "Box005 Mesh"
    }
  ],
  "samplers": [
    {
      "magFilter": 9729,
      "minFilter": 9985,
      "wrapS": 10497,
      "wrapT": 10497
    }
  ],
  "scene": 0,
  "scenes": [
    {
      "name": "Scene",
      "nodes": [
        0
      ]
    }
  ],
  "textures": [
    {
      "sampler": 0,
      "source": 0
    },
    {
      "sampler": 0,
      "source": 1
    },
    {
      "sampler": 0,
      "source": 2
    }
  ]
}